<svg xmlns="http://www.w3.org/2000/svg" viewBox="0 0 191.68 191.7"><defs><style>.cls-1{fill:#7a7883;}.cls-2{fill:#fff;}</style></defs><g id="Layer_2" data-name="Layer 2"><g id="Layer_1-2" data-name="Layer 1"><circle class="cls-1" cx="124.43" cy="68.86" r="8.49"/><path class="cls-1" d="M191.68,96.14A95.84,95.84,0,1,1,95.92,0,95.65,95.65,0,0,1,191.68,96.14Zm-41.24.53-.84,0c0-8.43.62-16.91-.13-25.27-1.57-17.62-11.42-27.9-28.95-28.74a490,490,0,0,0-51.42.5c-13.78.78-24.45,9.46-25.44,22.68a399,399,0,0,0,0,59.38c1,13.59,11.1,22.59,24.79,23.42a450.57,450.57,0,0,0,55,.08c14.49-.9,23.38-10.4,25.49-25C150.18,114.79,150,105.68,150.44,96.67Z"/><path class="cls-1" d="M139.32,95.63c0,7.84.32,15.69-.08,23.5-.65,12.71-7.06,19.59-19.83,20.05-16,.58-32,.55-47.9-.06-11.62-.45-18.44-7.35-18.87-19-.58-16-.56-32-.06-47.91C53,60.06,59.91,53,71.94,52.6c15.65-.58,31.35-.67,47-.14,13.19.44,19.68,7.4,20.33,20.57C139.63,80.55,139.33,88.1,139.32,95.63Zm-43.4,27.65c15.61,0,27.45-11.92,27.42-27.52A27,27,0,0,0,95.75,68.39c-15.6,0-27.45,11.94-27.42,27.53S80.28,123.31,95.92,123.28Zm29.45-46.94c2.49-4.53,5.33-7.37,4.91-9.57S126,61.14,124,61.39c-2.21.29-5.47,4-5.5,6.32S122,72.27,125.37,76.34Z"/><path class="cls-1" d="M95.76,78A17.81,17.81,0,1,1,78,95.92,18.1,18.1,0,0,1,95.76,78Z"/><circle class="cls-2" cx="124.43" cy="68.39" r="6.19"/></g></g></svg>