<svg xmlns="http://www.w3.org/2000/svg" viewBox="0 0 193.5 193.5"><defs><style>.cls-1{fill:#7a7883;}</style></defs><g id="Layer_2" data-name="Layer 2"><g id="Layer_1-2" data-name="Layer 1"><path class="cls-1" d="M0,96.65A96.75,96.75,0,0,1,97,0c53.32,0,96.5,43.39,96.53,97,0,53.05-43.39,96.49-96.48,96.53A96.74,96.74,0,0,1,0,96.65Zm148.41,42.87c0-.46.06-.79.06-1.12,0-11.73.12-23.46-.07-35.19A68.12,68.12,0,0,0,147,90.56c-1.34-6.38-4.8-11.32-11.12-13.82A27.9,27.9,0,0,0,124.15,75c-7.41.33-13.47,3.22-17.52,9.69-.08.12-.23.18-.52.41V76.6H87.4v62.85h19.53V138c0-9.94,0-19.87,0-29.81a47.37,47.37,0,0,1,.58-6.72,10.9,10.9,0,0,1,2.92-6.24c2.86-2.86,6.43-3.32,10.21-2.84a8,8,0,0,1,6.94,5.71,26.93,26.93,0,0,1,1.22,9.13q0,15.4,0,30.81v1.51Zm-93-63V139.5H75v-1.31q0-30.18,0-60.36c0-1-.26-1.36-1.32-1.35-5.72,0-11.44,0-17.16,0C56.21,76.5,55.84,76.55,55.45,76.57Zm9.69-8.67A11.38,11.38,0,1,0,53.82,56.48,11.4,11.4,0,0,0,65.14,67.9Z"/></g></g></svg>