<svg xmlns="http://www.w3.org/2000/svg" viewBox="0 0 194.53 194.64"><defs><style>.cls-1{fill:#7a7883;}</style></defs><g id="Layer_2" data-name="Layer 2"><g id="Layer_1-2" data-name="Layer 1"><path class="cls-1" d="M90.86,0h12.92c2.37.3,4.75.55,7.12.9C127,3.25,141.83,8.84,154.68,18.78c31.86,24.63,44.83,57.13,38.14,96.8-4,24-16.48,43.51-35.67,58.44-21.6,16.8-46.2,23.2-73.28,19.7A92.56,92.56,0,0,1,40,176Q7.66,151.91,1.12,112c-.44-2.74-.75-5.5-1.12-8.25V90.86c.3-2.38.55-4.76.9-7.12A95.24,95.24,0,0,1,18.72,40Q42.78,7.65,82.63,1.12C85.36.68,88.11.37,90.86,0ZM65.51,77.79l.24,0c.13,2.65.27,5.31.4,8,.12,2.39-.39,3-2.8,3.13a7.79,7.79,0,0,1-2.26-.17c-1.71-.43-3.37-1-5.09-1.44-2-.49-4.47.72-5.09,2.37-.52,1.4.27,3,2.35,4.06,1.55.83,3.24,1.38,4.85,2.11A43.41,43.41,0,0,1,63.2,98.3a4.47,4.47,0,0,1,2,5.46,24,24,0,0,1-2.06,4.67C58,117.31,51.15,124.09,40.8,126.56c-.76.18-2.06.89-2,1.19a4.29,4.29,0,0,0,1.32,2.48,9.08,9.08,0,0,0,3.17,1.66,44.1,44.1,0,0,0,7.51,1.87c2.77.32,4.06,1.57,4.58,4.26.89,4.64.71,4.41,5.68,3.55,6.6-1.13,12.86-.75,18.37,3.63A47.43,47.43,0,0,0,83.51,148c8.34,5.36,16.89,5.93,25.6,1,2.52-1.44,4.92-3.11,7.31-4.77a16.49,16.49,0,0,1,10.17-3.08c2.71.08,5.41.45,8.11.71,3.13.31,3.28.21,4-2.77a11.37,11.37,0,0,1,.82-2.91,4.18,4.18,0,0,1,2-1.85c1.79-.57,3.76-.62,5.54-1.23a64.15,64.15,0,0,0,7.58-3.27c.52-.26.8-1.37.82-2.1,0-.34-.84-.92-1.37-1a28.94,28.94,0,0,1-17.37-10.46,69.6,69.6,0,0,1-7.22-11.29c-1.61-3-.69-5.31,2.23-7.09a46.19,46.19,0,0,1,4.65-2.06,37.73,37.73,0,0,0,5.71-2.89c2.14-1.49,1.83-3.72-.46-5a6.47,6.47,0,0,0-5.46-.24,25.71,25.71,0,0,1-6.42,1c-1.25.06-1.83-.84-1.75-2.33.26-5.37.49-10.75.45-16.13C128.42,60,123.59,52.11,115,47c-11-6.56-22.71-6.59-34.12-.95A26,26,0,0,0,66.35,64.94C65.54,69.12,65.76,73.5,65.51,77.79Z"/></g></g></svg>