<svg xmlns="http://www.w3.org/2000/svg" viewBox="0 0 193.82 193.84"><defs><style>.cls-1{fill:#7a7883;}</style></defs><g id="Layer_2" data-name="Layer 2"><g id="Layer_1-2" data-name="Layer 1"><path class="cls-1" d="M193.82,97A96.91,96.91,0,1,1,96.94,0,96.93,96.93,0,0,1,193.82,97ZM149.51,64.15a3.11,3.11,0,0,0-.28-.14c-.47-.09-.93-.19-1.4-.25a32,32,0,0,1-18.42-9.24,50.77,50.77,0,0,1-9.64-13.26,1.25,1.25,0,0,0-1.28-.79c-6,0-11.93,0-17.89,0h-.93v75.3A17.82,17.82,0,1,1,80.37,98c2.49-.19,5-.08,7.52-.1h.88V78.2c-4.39.06-8.74-.22-13,.51a37.37,37.37,0,0,0-30.95,42.62c2.24,14.22,10.28,24.32,23.71,29.45s26.19,2.95,37.36-6.18c9.18-7.5,13.55-17.48,13.58-29.33q0-21.6,0-43.22V70.74c7.38,7.46,16.34,10.92,26.36,12.29C147,76.71,148.27,70.43,149.51,64.15Z"/></g></g></svg>