<svg xmlns="http://www.w3.org/2000/svg" viewBox="0 0 191.68 191.58"><defs><style>.cls-1{fill:#262262;}</style></defs><g id="Layer_2" data-name="Layer 2"><g id="Layer_1-2" data-name="Layer 1"><path class="cls-1" d="M95.78,191.57C42.61,192-.32,147.67,0,95.25.32,43,43.36-.29,96.37,0c52,.29,94.59,42.56,95.3,94.2C192.43,149.73,147,192.25,95.78,191.57Zm-15.85-33h20c5.87,0,5.89,0,5.88-5.77,0-17.57,0-35.14-.16-52.71,0-2.81.84-4,3.76-3.88a84.06,84.06,0,0,0,10.53-.1c1.13-.1,3-1.2,3.12-2,.74-6.31,1.13-12.66,1.67-19.63H105.81c0-4.79-.06-9,0-13.25,0-3.2,1.73-4.75,5-4.66s6.74-.16,10.09.07,4.1-1.31,4.07-4.13c-.05-5-.06-10,0-14.93,0-2.65-1.16-3.56-3.76-3.49-5.85.15-11.72-.13-17.56.19-14.86.81-24,8.21-23.79,24.23.06,5.21,0,10.42,0,16.07-3.4,0-6.31.14-9.19,0s-4,.63-3.94,3.63c.18,5,.14,10,0,14.94-.08,2.71,1.07,3.67,3.64,3.58,3-.09,6.06,0,9.5,0Z"/></g></g></svg>