<svg xmlns="http://www.w3.org/2000/svg" viewBox="0 0 195.23 195.31"><defs><style>.cls-1{fill:#262262;}</style></defs><g id="Layer_2" data-name="Layer 2"><g id="Layer_1-2" data-name="Layer 1"><path class="cls-1" d="M100.61,195.31H94.08c-1.35-.34-2.69-.76-4.06-1-7.49-1.47-15.17-2.3-22.45-4.46-19.35-5.72-35-17.14-47.24-33.06A96.33,96.33,0,0,1,.27,104.46a97.38,97.38,0,0,1,1-22.94A94.57,94.57,0,0,1,22.89,34.9,96,96,0,0,1,73.27,3.1,92.9,92.9,0,0,1,110.88,1a98.14,98.14,0,0,1,38.7,14.33,96.6,96.6,0,0,1,34,37,89.79,89.79,0,0,1,10,31c.43,3.39,1.08,6.75,1.64,10.12v7.18c-.37,1.56-.85,3.11-1.09,4.7-.79,5.09-1.06,10.3-2.31,15.27a95.84,95.84,0,0,1-37.57,55.62,92.31,92.31,0,0,1-43.51,17.47C107.36,194.16,104,194.78,100.61,195.31Zm-3.29-58.49q25.11,0,50.22,0c6.23,0,9.23-2.94,9.25-9.13q.06-22.35,0-44.69c0-4.81-.9-5.33-5.07-3.09-15.42,8.24-30.87,16.4-46.22,24.77-5.58,3-10.77,3.06-16.35,0C73.84,96.33,58.38,88.16,43,79.92c-4.2-2.25-5.09-1.75-5.1,3q0,22.17,0,44.36c0,6.63,3,9.53,9.56,9.53Q72.38,136.84,97.32,136.82Zm.37-78.65c-17.72,0-35.44-.07-53.16.09-2,0-5.19.77-5.81,2.12-1.26,2.75,1.35,4.63,3.55,6.14a11.43,11.43,0,0,0,1.12.67Q66.94,80.13,90.5,93.07a13.48,13.48,0,0,0,13.68,0q23.71-13,47.38-26.09a12.26,12.26,0,0,0,3.7-3.08c2.22-2.85,1.09-5.31-2.46-5.67a29.47,29.47,0,0,0-3.26-.06Z"/></g></g></svg>