<svg xmlns="http://www.w3.org/2000/svg" viewBox="0 0 195.27 195.31"><defs><style>.cls-1{fill:#262262;}</style></defs><g id="Layer_2" data-name="Layer 2"><g id="Layer_1-2" data-name="Layer 1"><path class="cls-1" d="M195.27,97.84A97.64,97.64,0,1,1,97.46,0,97.58,97.58,0,0,1,195.27,97.84Zm-154-34.29c0,8.13,2.15,16.49,7.15,26,10.06,19.09,22.38,36.64,38.55,51a123.53,123.53,0,0,0,25,17.09c11.82,6.11,24.2,5.56,35.75-1.74,6.6-4.18,8.26-9,4.81-16a85.57,85.57,0,0,0-9.33-14.54c-9.45-12.14-13.19-12.73-25.95-4.38-3.9,2.56-7.49,2.71-10.51-.69-9.63-10.86-19.33-21.69-28.41-33-4.63-5.76-4-6.77,1.36-12.19,1.42-1.44,2.89-2.85,4.3-4.32,3.84-4,5-8.49,2.4-13.24-5-9-11.68-16.65-20.6-22-5.16-3.08-9.22-2.3-13.59,2A34.84,34.84,0,0,0,41.24,63.55Z"/></g></g></svg>