<svg xmlns="http://www.w3.org/2000/svg" viewBox="0 0 194.17 194.06"><defs><style>.cls-1{fill:#262262;}</style></defs><g id="Layer_2" data-name="Layer 2"><g id="Layer_1-2" data-name="Layer 1"><path class="cls-1" d="M0,105.4V89.22c.44-2.75.87-5.5,1.33-8.24C9.48,31.72,55.49-6.33,109.66.88,163.43,8,200.23,56.55,193.34,110.05c-4.91,38.14-33.64,71-70.81,80.71-5.38,1.41-10.92,2.21-16.39,3.3H88c-1.68-.28-3.36-.58-5-.83A97.19,97.19,0,0,1,3.05,121.15C1.72,116,1,110.65,0,105.4Zm55.24,1.77c3.57,9.11,10.47,13.69,20.45,15-9.46,7.3-19.64,9.88-30.77,9.93a5.48,5.48,0,0,0,1.73,1.36c16.27,8.66,33.26,10.05,50.71,4.51,25.2-8,42.6-32.54,42.86-60.15a5.84,5.84,0,0,1,2.3-4.89c2.87-2.47,5.39-5.34,8-8a19.26,19.26,0,0,0-5.68.95c-1.75.43-3.55.67-6.18,1.14,6.22-5.17,8.31-8.06,8.53-11.25-3.07,1.16-6.19,2.33-9.29,3.52-2.29.88-4,.52-6.09-1.16A22,22,0,0,0,96.25,71.23c-.52,2.86-.07,5.9-.07,9.17-18.77-1.16-33.74-9.07-45.8-22.86-5.69,9.16-3.45,19.43,6,29.51l-9.25-2.27c1,11.08,6.84,17.89,16.9,21.92Z"/></g></g></svg>