<svg xmlns="http://www.w3.org/2000/svg" viewBox="0 0 191.56 191.59"><defs><style>.cls-1{fill:#262262;}</style></defs><g id="Layer_2" data-name="Layer 2"><g id="Layer_1-2" data-name="Layer 1"><path class="cls-1" d="M95.76,0A95.8,95.8,0,1,1,0,95.63,95.81,95.81,0,0,1,95.76,0Zm2.35,85.87c-11.43.32-20.58.53-29.73.86-3.51.12-7,.49-10.5.76a13.06,13.06,0,0,0-12.09,10,55.86,55.86,0,0,0-1.16,6.68A171.59,171.59,0,0,0,44,130.38a125.07,125.07,0,0,0,1.49,15.22c1.12,7,5.82,11.05,12.84,11.49,7.9.49,15.79,1,23.7,1.21a469.31,469.31,0,0,0,51.42-1.22c6.15-.54,10.8-4.3,12.17-10a56.17,56.17,0,0,0,1.17-6.82c1-8.73.81-17.49.64-26.24a73.59,73.59,0,0,0-1.72-16.14A12.65,12.65,0,0,0,136,87.9a25.86,25.86,0,0,0-5.28-.66C119.11,86.73,107.48,86.26,98.11,85.87Zm-21.71-6v-1.5c0-5.38,0-10.76,0-16.14a8.45,8.45,0,0,1,.34-2.35q3.81-12.69,7.66-25.37c.13-.44.22-.89.34-1.37h-7q-2.34,8.94-4.65,17.82h-.24Q70.42,42,68,33.12H60.64l.66,2q3.2,9.54,6.38,19.07A32.37,32.37,0,0,1,69.43,65.8c-.17,4.17,0,8.35,0,12.53v1.51Zm44.25-34.76v1.38c0,7.82-.06,15.65,0,23.47a4,4,0,0,1-1.87,3.68,3.78,3.78,0,0,1-2.71.76c-.56-.2-.75-1.59-1-2.47a5.48,5.48,0,0,1,0-1.46V45.1h-6.22c0,.4-.06.71-.06,1,0,8,0,16.08,0,24.13a47.79,47.79,0,0,0,.4,6.77,3.93,3.93,0,0,0,4.65,3.36,9.65,9.65,0,0,0,5.54-2.94c.37-.34.72-.7,1.33-1.29v3.68h6.21V45.08ZM103.33,62.42h.23c0-2.57.06-5.15,0-7.73a11.75,11.75,0,0,0-1.68-6.22c-2.11-3.22-6-4.6-10.11-3.63a8.51,8.51,0,0,0-6.53,7.84c-.3,4.61-.27,9.23-.31,13.85a41.91,41.91,0,0,0,.27,5.71c.64,5.12,4.17,8.18,9.19,8.13s8.48-3.13,8.91-8.23C103.56,68.92,103.33,65.66,103.33,62.42Z"/><path class="cls-1" d="M104.05,141.78v2.8H97.86V98.44H104v14.85c.46-.42.7-.69,1-.9a18.87,18.87,0,0,1,3.28-2.21,5.06,5.06,0,0,1,7.24,3.63,18.2,18.2,0,0,1,.53,4.22c.06,6.13.08,12.26,0,18.39a19.36,19.36,0,0,1-.61,4.73c-1,3.6-4.12,5-7.49,3.4A28.68,28.68,0,0,1,104.05,141.78Zm5.86-14.37c0-2.4.06-4.8,0-7.2a11.9,11.9,0,0,0-.55-3.25,2.2,2.2,0,0,0-2.85-1.53c-1.49.41-2.5,1.13-2.48,2.61.11,6.26,0,12.52,0,18.78,0,1.36.86,2.28,2.44,2.63a2.28,2.28,0,0,0,2.8-1.47,12.05,12.05,0,0,0,.59-3.38C110,132.21,109.91,129.81,109.91,127.41Z"/><path class="cls-1" d="M139.81,128.56H127.14c.15,2.93.14,5.8.47,8.63.2,1.67,1.5,2.4,3.1,2.29,1.44-.11,2.26-.91,2.5-2.63.18-1.27.2-2.56.3-4H140a39.75,39.75,0,0,1-.87,6.55c-1.16,3.86-4.9,6-9.36,5.71a8.79,8.79,0,0,1-8.27-7.06,14.23,14.23,0,0,1-.39-3c0-5.59-.14-11.2.17-16.78.29-5.24,3.82-8.37,9-8.54,4.88-.17,8.45,2.84,9.25,7.91a38.2,38.2,0,0,1,.33,4.91C139.85,124.49,139.81,126.44,139.81,128.56Zm-12.69-5.26h6.52c-.16-2-.18-3.85-.49-5.71a2.83,2.83,0,0,0-5.54,0C127.31,119.44,127.28,121.31,127.12,123.3Z"/><path class="cls-1" d="M86.08,110.21h6.2v34.35H86.17c0-1.06-.1-2.14-.15-3.4-.92.81-1.67,1.54-2.49,2.18a7.19,7.19,0,0,1-5,1.8,3.6,3.6,0,0,1-3.67-2.89,17,17,0,0,1-.45-3.82c0-9.11,0-18.22,0-27.33a8,8,0,0,1,.08-.87h6.16v25.93c0,.53,0,1.07,0,1.59.13,1.54,1.06,2.09,2.5,1.52A4.56,4.56,0,0,0,86.08,135V110.21Z"/><path class="cls-1" d="M51.69,98.4H73.34v6.41h-7.4v39.77H59v-39.7H51.69Z"/><path class="cls-1" d="M97.22,62.53c0,2.67,0,5.33,0,8a8.39,8.39,0,0,1-.6,2.69,2.64,2.64,0,0,1-4.7,0,7.89,7.89,0,0,1-.6-2.69q-.08-8.05,0-16.1a7.67,7.67,0,0,1,.6-2.7,2.68,2.68,0,0,1,4.71,0,7.87,7.87,0,0,1,.58,2.56c.07,2.75,0,5.5,0,8.25Z"/></g></g></svg>