<svg xmlns="http://www.w3.org/2000/svg" viewBox="0 0 384.68 365.64"><defs><style>.cls-1{fill:#262262;}.cls-2{fill:#ef4136;}.cls-3{fill:#9d9d9d;}</style></defs><g id="Layer_2" data-name="Layer 2"><g id="Layer_1-2" data-name="Layer 1"><path class="cls-1" d="M181.61,132c5.66,0,13.23.11,20.79,0,19.8-.32,39.53.76,59.25,2.36a528.71,528.71,0,0,1,53.64,7.1q15,2.76,29.66,6.79c5.09,1.41,7.52,4.6,6.91,9.81-1.09,9.34-2.32,18.65-4.11,27.88-1,5.22-3,6.57-8.3,5.14q-9.27-2.5-18.66-4.53a489,489,0,0,0-56.48-8.41,660.55,660.55,0,0,0-82-2.66,593,593,0,0,0-68.1,5.61c-19.55,2.83-38.87,6.59-57.77,12.38-4.62,1.42-6.5.22-7.48-4.42a255.49,255.49,0,0,1-4.36-28.34c-.58-6,.87-8.27,6.65-10.1,19.86-6.3,40.25-10.12,60.84-13C134.52,134.45,157.08,132.9,181.61,132Z"/><path class="cls-2" d="M211.54,33.81a577.65,577.65,0,0,1,80,6.5q19.24,3,38.08,7.9c5.19,1.35,8.57,4.17,10.31,9.38,2.49,7.42,5,14.82,6.85,22.42.85,3.49-.67,5.06-4.27,4.22-4.85-1.15-9.67-2.42-14.54-3.52-11.79-2.65-23.63-5-35.63-6.61-16.76-2.21-33.53-4.12-50.42-5q-26.69-1.41-53.38-1c-19.81.32-39.56,1.63-59.25,3.7-13.48,1.42-26.89,3.41-40.17,6.09-11.61,2.34-23.19,4.86-34.45,8.67-3.69,1.25-5.38-.32-4.47-4A156.9,156.9,0,0,1,58.86,57a11.1,11.1,0,0,1,7.3-6.23,320.79,320.79,0,0,1,45.7-10.39,571.26,571.26,0,0,1,89-6.61Z"/><path class="cls-1" d="M201.78,240.28a480.7,480.7,0,0,1,48.31,1.57c13.73,1.17,27.39,3,41,5.27a269.76,269.76,0,0,1,27,5.89c4.78,1.32,5.6,3.84,3.13,8.19-4.5,8-8.81,16-13.94,23.61-2.74,4.06-4.73,4.85-9.5,3.62a336.13,336.13,0,0,0-45.53-8.16c-24-2.8-48.11-2.94-72.21-2.22a317.07,317.07,0,0,0-32.69,2.71c-13.06,1.76-26.09,3.71-38.84,7.11q-3.74,1-7.4,2.21c-4.46,1.45-6.61.75-9.37-3.17a267.26,267.26,0,0,1-14.93-23.56c-.51-.92-1.44-1.56-1.59-2.74-.37-2.79.65-4.53,3.42-5.42,12.84-4.14,26.05-6.65,39.31-8.94,16-2.76,32.26-4.18,48.49-5.39,4.05-.3,8.12-.51,12.18-.56C186.32,240.22,194.05,240.28,201.78,240.28Z"/><path class="cls-1" d="M5.67,126.92c2-5,5.6-8.63,9.68-11.84,9.81-7.72,21.18-12.44,32.85-16.45C68,91.84,88.46,87.75,109.14,84.69a595.34,595.34,0,0,1,70.31-6,21.1,21.1,0,0,1,3.73.17c4.32.67,5.47,2,5.45,6.38,0,9.31-.1,18.62-.2,27.93,0,3.81-1.73,5.68-5.57,6.44-4.27.84-8.62.7-12.93.87a570.13,570.13,0,0,0-82.52,9.11C67,133.44,47,138.51,28.05,147.33c-8.53,4-16.74,8.59-22.85,16.11a27.75,27.75,0,0,0-3.79,6.43l-.94.07.33-7.42a1.29,1.29,0,0,0,.09-2q.21-3.51.4-7a.86.86,0,0,0,.1-1.49c.14-1.5.27-3,.4-4.5.74-.64.55-1.41.3-2.19.4-2.6.81-5.2,1.21-7.8a.81.81,0,0,0,.25-1.2c.07-.43.14-.86.22-1.29.64-.45.57-1.05.33-1.68l.23-1.32a.81.81,0,0,0,.24-1.19l.24-1.31A3.49,3.49,0,0,0,5.67,126.92Z"/><path class="cls-1" d="M31.7,279.64c-1.68-2.72-3.55-5.34-5-8.18-4.15-8.09-8.19-16.23-11.77-24.61-3.48-8.16-1.21-14.69,4.28-20.75,6.47-7.13,14.88-11.36,23.51-15,17.9-7.55,36.64-12.16,55.78-15.36C109.22,194,120,192.22,130.74,191c8.16-.94,16.36-1.58,24.55-2.15,8.37-.58,16.75-1,25.12-1.3a12.24,12.24,0,0,1,5.38.8c1.91.83,3.38,2,3.45,4.41.29,9.38.49,18.76,1,28.13.35,6.94-2.18,7.48-7.39,8.05-4,.43-8.13.33-12.18.57-13.17.74-26.31,1.77-39.41,3.42A362.86,362.86,0,0,0,87.44,241c-11.6,2.94-23,6.46-33.81,11.79A58.55,58.55,0,0,0,37.52,263.9C33.29,268.21,30.89,273.19,31.7,279.64Z"/><path class="cls-2" d="M208.33,98.77c0-4.83.12-9.66,0-14.48-.1-2.86,1.35-4.27,3.76-5.13a15.1,15.1,0,0,1,5.42-.63,588,588,0,0,1,92.8,8.68c20.64,3.7,41,8.53,60.35,16.93,3,1.29,5.84,2.82,8.77,4.21a4,4,0,0,1,2.4,3.22,216.43,216.43,0,0,1,2.89,36.48c0,3.36,0,3.31-3.08,1.75-14.24-7.26-29.38-12-44.85-15.75a480.73,480.73,0,0,0-67.25-11c-16.65-1.63-33.32-2.67-50-3a21.46,21.46,0,0,1-7.61-1.15,5.15,5.15,0,0,1-3.55-5.39C208.42,108.58,208.33,103.67,208.33,98.77Z"/><path class="cls-2" d="M225,187.58c12.74.22,25.44,1.13,38.1,2.37,21,2.05,41.79,5,62.31,9.84,14.94,3.55,29.57,8,43.37,14.77,5.12,2.52,4.56,1.61,2.74,6.77a226.92,226.92,0,0,1-14.34,32.09c-.74,1.38-1.3,2-3,1.15-16.84-8.78-35-13.39-53.53-17A441.14,441.14,0,0,0,245,230.46c-9.8-.66-19.59-1.29-29.4-1.49a15.31,15.31,0,0,1-4.65-.82,4.77,4.77,0,0,1-3.6-5c.2-10.06.3-20.12.47-30.18.05-2.84,1.53-4.51,4.74-5.21C216.68,186.82,220.85,187.52,225,187.58Z"/><path class="cls-1" d="M34.84,59c6.73-10.69,14.8-20,23.39-28.92,6.38-6.6,14.71-10.18,23.14-13.41,16-6.13,32.72-9.46,49.6-12A438,438,0,0,1,184.62,0c7-.19,7.5.29,7.08,7.26q-.42,6.86-.83,13.69a3.93,3.93,0,0,1-2.8,3.71,24.26,24.26,0,0,1-7.88,1,518.61,518.61,0,0,0-62.83,5.67C96.94,34.58,76.78,38.8,57.55,46.66c-7.26,3-14.23,6.46-20.4,11.39A3,3,0,0,1,34.84,59Z"/><path class="cls-2" d="M213.56,287.46a414.35,414.35,0,0,1,49,4.19c15.72,2.43,31.23,5.57,46,11.63,2.08.85,4,2,6.12,2.82s2.17,1.61.56,3.14c-4.4,4.18-8.91,8.22-13.68,12s-9.45,7.58-14.37,11.11c-1.16.83-2.18,1.25-3.64.51-11-5.57-22.84-8-34.83-10a211,211,0,0,0-35-2.68,23.32,23.32,0,0,1-6.37-.94c-1.43-.41-2-1.89-2-3.4.08-8.24.13-16.47.31-24.71,0-1.94,1.79-2.64,3.32-3.22A9.22,9.22,0,0,1,213.56,287.46Z"/><path class="cls-1" d="M8.58,227.19a59.09,59.09,0,0,1-3.73-13.41c-1.18-7.29-2-14.64-3.32-21.9a19.48,19.48,0,0,1,4.78-17.1c6-6.93,13.75-11.42,22-15.14,2.51-1.13,4.28.31,4.56,3.48a216.4,216.4,0,0,0,4.06,26.8c.3,1.38.6,2.76,1,4.12,1,3.81,0,6.41-3.6,8.16a80.61,80.61,0,0,0-14.63,9C14.39,215.32,10.24,220.33,8.58,227.19Z"/><path class="cls-2" d="M383.84,167.63c-1.36,10.11-2.69,20.23-5.38,30.12-.54,2-.92,4-1.42,6-.33,1.36-.94,1.47-2.13.88-3.72-1.86-7.51-3.56-11.22-5.41-3.51-1.74-4.57-3.94-3.75-7.73a266.16,266.16,0,0,0,4.9-31c.36-3.72,2-4.83,5.57-3.68,4.45,1.43,8.44,3.9,12.6,6C384.19,163.42,384.14,163.53,383.84,167.63Z"/><path class="cls-1" d="M9.21,112.36c.92-2.83,1.71-5.7,2.79-8.47,3.74-9.58,8-19,12.45-28.19A22,22,0,0,1,29.94,69,71.74,71.74,0,0,1,46.06,58.7c.8-.39,1.74-1,2.52-.17s.19,1.57-.15,2.33a188.77,188.77,0,0,0-9.77,27.43c-.87,3.2-3.13,5.36-6.13,6.84-6.94,3.44-13.68,7.21-19.06,13-1.35,1.44-2.56,3-3.84,4.54Z"/><path class="cls-2" d="M314.27,291.94a4.36,4.36,0,0,1,1-2.52,296.21,296.21,0,0,0,17.14-26.2c2.05-3.59,4.71-4.27,8.43-2.46,2.46,1.19,4.88,2.48,7.38,3.61,1.72.77,1.88,1.56.84,3.18a246.15,246.15,0,0,1-14.83,20.62c-2.55,3.16-5.23,6.21-7.79,9.36a2.1,2.1,0,0,1-3.16.61c-2.16-1.23-4.47-2.19-6.72-3.25C315.24,294.29,314.23,293.5,314.27,291.94Z"/><path class="cls-3" d="M.47,169.94l.94-.07c.55,1-.18,1.6-.71,2.32C-.11,171.47-.26,170.75.47,169.94Z"/><path class="cls-3" d="M5.67,126.92a3.49,3.49,0,0,1-.86,2.64A2.26,2.26,0,0,1,5.67,126.92Z"/><path class="cls-3" d="M.89,160.53a1.29,1.29,0,0,1-.09,2A1.41,1.41,0,0,1,.89,160.53Z"/><path class="cls-3" d="M2.09,145.35c.25.78.44,1.55-.3,2.19A1.57,1.57,0,0,1,2.09,145.35Z"/><path class="cls-3" d="M1.39,152a.86.86,0,0,1-.1,1.49A.92.92,0,0,1,1.39,152Z"/><path class="cls-3" d="M4.1,133.38c.24.63.31,1.23-.33,1.68C3.25,134.37,3.53,133.85,4.1,133.38Z"/><path class="cls-3" d="M4.57,130.87a.81.81,0,0,1-.24,1.19C3.8,131.54,4.17,131.2,4.57,130.87Z"/><path class="cls-3" d="M3.55,136.35a.81.81,0,0,1-.25,1.2C2.79,137,3.15,136.69,3.55,136.35Z"/><path class="cls-2" d="M222.77,359.16a63.07,63.07,0,0,0-17.66-2.7,5.1,5.1,0,0,1-.84-.08.54.54,0,0,1-.21.05h-2.17c-.16,2.4-.46,4.78-.59,7.18-.1,1.66.4,2.29,2.12,1.94,3.83-.75,7.69-1.33,11.5-2.13a68.81,68.81,0,0,0,10.6-2.73A4.25,4.25,0,0,0,222.77,359.16Z"/><path class="cls-2" d="M256.8,333.49C247,330.85,237,329.54,227,328.44a159.45,159.45,0,0,0-22.39-1.07A2.1,2.1,0,0,1,203,327h-1.69a3.45,3.45,0,0,1-2,.4c-7-.05-14,0-20.93.53a28,28,0,0,1-3.69.15l-3.63.67c-.79.44-2.07,0-3,.19-1.14.2-2.3.31-3.45.49-8.18,1.25-16.35,2.53-24.23,5.17-.73.25-1.8.18-1.93,1.28a2.08,2.08,0,0,0,1.36,1.94c3.06,1.71,5.5,4.27,8.58,5.95,3.48,1.9,6.81,4.06,10.23,6.05,5.28,3.07,10.46,6.76,17,3.33a.69.69,0,0,1,.25,0c7.89-1.8,16-1.86,24-2.44a4.85,4.85,0,0,1,.54,0,1,1,0,0,1,.35-.06l3.65.19a.83.83,0,0,1,.53.23h.25c6.09-.13,12,1.17,18,2,3.84.51,7.8,1.8,11.56-.47,2.94-1.78,5.92-3.5,8.8-5.39a155.2,155.2,0,0,0,13.82-9.78c.77-.64,1.76-1.11,1.66-2.3C259,333.67,257.66,333.72,256.8,333.49Z"/><path class="cls-1" d="M193.14,309.79c-.45-5.63-.85-11.25-1.39-16.86a4.28,4.28,0,0,1,0-1.15l-.2-2.19a8.05,8.05,0,0,1-2.73-1.48,1.71,1.71,0,0,0-1-.16c-3.08,0-6.18-.21-9.23.08-2.7.26-5.35-.26-8.1.29a84.13,84.13,0,0,1-12.12,1.1c-7.43.38-14.75,1.69-22.07,2.85s-14.65,2.59-21.89,4.47a140.78,140.78,0,0,0-26.68,9.51c-1.38.68-2.88,2.43-4.12,2.27a.87.87,0,0,1-.62.25h-.83a7.9,7.9,0,0,1-3.16,3.49,12,12,0,0,0-4.49,5.55,3.52,3.52,0,0,1-1.39,1.8V323a10.86,10.86,0,0,0,3.59,7.31c1.66,1.54,3.58,2.67,5.34,4,7.46,5.77,16,9.64,24.2,14.19a2,2,0,0,0,2.14,0c.7-.57,0-1.24-.16-1.82-1.1-3.64.81-6.38,3.12-8.57,5-4.72,11.13-7.39,17.56-9.58a159.82,159.82,0,0,1,28.33-6.34c4.09-.61,8.22-1.05,12.33-1.49a5.48,5.48,0,0,1,1.35-.09l2.37-.16a2.19,2.19,0,0,1,1.28-.2c5.25.42,10.41-.75,15.62-1,2.39-.13,3.42-1.26,3.36-3.71C193.56,313.58,193.29,311.69,193.14,309.79Z"/><path class="cls-1" d="M82,296.81h.88a6.82,6.82,0,0,1,.26-.88c1.06-2.86.63-4.69-1.81-6.41a3.8,3.8,0,0,1-.83-.91c-1.75-2.43-3.48-4.87-5.23-7.28-3.72-5.12-7-10.48-10.4-15.83-1.94-3.1-4-4.05-6.55-2.85-6.54,3.11-12.7,6.84-17.53,12.36-4.23,4.84-5.48,13.18-1.08,18.64,4.72,5.85,9,12.08,14.78,17,3.65,3.11,6.79,6.83,10.18,10.25a5.5,5.5,0,0,0,1,.95v-2.27c-1-.44-1.23-1.42-1.32-3.42-.2-4.79,2.12-8.46,5.44-11.55a50.47,50.47,0,0,1,10.68-7.24,4.24,4.24,0,0,1,.89-.37A1.19,1.19,0,0,1,82,296.81Z"/></g></g></svg>