<svg xmlns="http://www.w3.org/2000/svg" viewBox="0 0 178.38 178.38"><defs><style>.cls-1{fill:#86878a;}.cls-2{fill:#ebeceb;}.cls-3{fill:#2e3690;}</style></defs><g id="Layer_2" data-name="Layer 2"><g id="Layer_1-2" data-name="Layer 1"><circle class="cls-1" cx="89.19" cy="89.19" r="89.19"/><path class="cls-2" d="M142.05,135.32H37.22V94.15l21.67,9.21V94.11l21.79,9.26V94.13l22.41,9.52V82.46h9.16V74.18h20.68v8.24h9.12ZM46.86,113v8.73h6.7V113ZM61,121.75H67.7V113H61Zm20.85,0v-8.73h-6.7v8.73ZM89.26,113v8.73H96V113Zm25.43-13.86V91.53h-5.87v7.64Zm11,0V91.53h-5.85v7.63Zm11,0V91.53h-5.86v7.63ZM108.8,113.58h5.89V106H108.8Zm11-7.62v7.63h5.85V106Zm10.94,7.62h5.9V106h-5.9Z"/><path class="cls-2" d="M77.09,99.92l-7-3c-1.23-.52-2.46-1.06-3.7-1.57a.7.7,0,0,1-.53-.79q.48-12.4.93-24.83c.17-4.53.32-9.07.48-13.6q.4-11.05.82-22.1c0-.69,0-1.39,0-2.14h6.54C75.47,54.56,76.28,77.18,77.09,99.92Z"/><path class="cls-2" d="M90.67,42h6.42c.72,19.39,1.44,38.76,2.16,58.24l-.73-.29c-3.11-1.32-6.21-2.65-9.33-4a.8.8,0,0,1-.59-.9c.25-6,.47-12,.7-17.92q.24-6.37.47-12.74l.84-21.88C90.62,42.41,90.64,42.25,90.67,42Z"/><path class="cls-1" d="M46.86,113h6.7v8.73h-6.7Z"/><path class="cls-1" d="M61,121.75V113H67.7v8.71Z"/><path class="cls-1" d="M81.83,121.78h-6.7v-8.73h6.7Z"/><path class="cls-1" d="M89.26,113H96v8.73H89.26Z"/><path class="cls-1" d="M114.69,99.17h-5.87V91.53h5.87Z"/><path class="cls-1" d="M125.64,99.16h-5.85V91.53h5.85Z"/><path class="cls-1" d="M136.61,99.16h-5.86V91.53h5.86Z"/><path class="cls-1" d="M108.8,113.58V106h5.89v7.58Z"/><path class="cls-1" d="M119.78,106h5.85v7.63h-5.85Z"/><path class="cls-1" d="M130.72,113.58V106h5.9v7.59Z"/><circle class="cls-3" cx="148.68" cy="155.47" r="20.15"/><rect class="cls-2" x="135.18" y="152.75" width="27.64" height="5.58" rx="0.7"/><rect class="cls-2" x="145.96" y="141.65" width="5.58" height="27.64" rx="0.7"/></g></g></svg>