<svg xmlns="http://www.w3.org/2000/svg" viewBox="0 0 23.57 33.28"><defs><style>.cls-1{fill:#262262;}</style></defs><g id="Layer_2" data-name="Layer 2"><g id="Layer_1-2" data-name="Layer 1"><path class="cls-1" d="M11.77,30.32l-1.49-2c-1.76-2.42-3.53-4.82-5.14-7.35A43.57,43.57,0,0,1,1.46,14a10.09,10.09,0,0,1-.81-3.55,9.13,9.13,0,0,1,2-5.92A10.9,10.9,0,0,1,10,.15a11.25,11.25,0,0,1,8.82,2.19,10.49,10.49,0,0,1,4,6.38,8.07,8.07,0,0,1-.47,4.6,48.73,48.73,0,0,1-4.76,8.93c-1.78,2.72-3.71,5.34-5.67,7.94ZM6.64,11a5.15,5.15,0,1,0,5.15-5.15A5.14,5.14,0,0,0,6.64,11Z"/><path class="cls-1" d="M9.09,29.35c-.26.08-.5.15-.74.24a2.19,2.19,0,0,0-.49.23.41.41,0,0,0,0,.77,2.31,2.31,0,0,0,.7.31c.67.14,1.34.27,2,.35a12.24,12.24,0,0,0,3.47-.13,14,14,0,0,0,1.41-.39,1.11,1.11,0,0,0,.19-.09c.38-.22.43-.53.06-.77a6.09,6.09,0,0,0-1-.45l-.21-.06,1.35-1.94a.24.24,0,0,1,.19-.06,20.79,20.79,0,0,1,6,1.31,3.21,3.21,0,0,1,1.33.94.81.81,0,0,1,.08,1,2.59,2.59,0,0,1-.7.7,8.73,8.73,0,0,1-3,1.14,36.62,36.62,0,0,1-9.1.78A37.82,37.82,0,0,1,4.9,32.7a13.11,13.11,0,0,1-3.52-1.05A4.53,4.53,0,0,1,.45,31a1,1,0,0,1,0-1.69A5.18,5.18,0,0,1,2,28.49a19.73,19.73,0,0,1,4.36-1l1.13-.13a.3.3,0,0,1,.21.07Z"/></g></g></svg>