<svg xmlns="http://www.w3.org/2000/svg" viewBox="0 0 31.04 35.38"><defs><style>.cls-1{fill:#262262;}</style></defs><g id="Layer_2" data-name="Layer 2"><g id="Layer_1-2" data-name="Layer 1"><path class="cls-1" d="M31,35.38H26.53V30.85H23.47v4.51H0V14.5l1.89.84C2,14.6,2,13.9,2.06,13.2c.13-1.94.27-3.88.4-5.82,0-.37.18-.56.55-.56H6.06c.29,0,.45.13.48.46.18,2.68.38,5.36.57,8.05,0,.73.11,1.45.18,2.18,0,.12.06.31.15.35.88.43,1.77.83,2.71,1.26V14.41l8.71,4c0-.24,0-.4,0-.56q0-3.94,0-7.89a1.47,1.47,0,0,1,1.6-1.64h3.8a1.46,1.46,0,0,1,1.47,1.48c0,.49,0,1,0,1.41a10.14,10.14,0,0,1,1.44.7,3.24,3.24,0,0,1,1.41,2.76q0,5.13,0,10.26v.55H31Zm-6.2-24.23c0-.3,0-.74,0-1.18s-.22-.71-.74-.71H20.48c-.5,0-.72.22-.73.72,0,2.86,0,5.71,0,8.56A.52.52,0,0,0,20,19a.51.51,0,0,1,.32.56c0,1.82,0,3.64,0,5.46v.5H21.8v-.54q0-4.76,0-9.51A3.76,3.76,0,0,1,23,12.2,14.15,14.15,0,0,1,24.84,11.15ZM8.47,30.77H5.73v1.94H8.47Zm8.82-.52v-2H14.57v2Zm-8.83,0v-2H5.72v2Zm8.85,2.49v-2H14.57v2Zm-12-2.48v-2H2.56v2Zm6.13-2v2h2.71v-2ZM2.56,30.76v2H5.28v-2Zm11.58,0H11.41v1.94h2.73Z"/><path class="cls-1" d="M5,6.54c-.35,0-.6,0-.84,0a.35.35,0,0,1-.25-.16c-.16-.62-.33-1.25-.43-1.88-.12-.83.4-1.29,1.23-1.15.15,0,.3.07.46.1a1.05,1.05,0,0,0,1.29-.69c.27-.55.51-1.12.82-1.65a2.23,2.23,0,0,1,2.45-1,2.17,2.17,0,0,1,1.55,2.05c0,.54-.23.82-.79.83h-1a1.23,1.23,0,0,0-1.2,1,3,3,0,0,0-.09.32,1.13,1.13,0,0,1-1.46.92,7.08,7.08,0,0,1-1-.28c-.81-.28-1.08.38-.94.93C4.81,6,4.89,6.21,5,6.54Z"/></g></g></svg>