<svg xmlns="http://www.w3.org/2000/svg" viewBox="0 0 172 173.01"><defs><style>.cls-1{fill:#ebecec;}.cls-2{fill:#86878a;}.cls-3{fill:#2e3192;}</style></defs><g id="Layer_2" data-name="Layer 2"><g id="Layer_1-2" data-name="Layer 1"><circle class="cls-1" cx="86" cy="89.44" r="83.57"/><path class="cls-2" d="M25,146.56C-6.86,115.12-10,60,25.62,24.91a85.67,85.67,0,0,1,125.91,5.57C184,69.05,174.08,120.1,147.88,145.6a2,2,0,0,1-.41-.4c-4.58-8.1-11.8-12.88-20.21-16.2a85.84,85.84,0,0,1-16.1-8,21.88,21.88,0,0,1-7.31-7.17,9,9,0,0,1-.11-9.26c2-3.72,4.27-7.31,5.29-11.49a9.4,9.4,0,0,1,3.36-4.75c3.28-2.82,4.49-6.49,2.75-10.31-1.23-2.72-.19-4.81.31-7.13.81-3.73,2-7.39,2.55-11.16a15.53,15.53,0,0,0-.76-5.79,40.51,40.51,0,0,0-4.42-11.35c-2.82-4.74-7.27-7.27-12.32-8.8a44.28,44.28,0,0,0-15.86-2.08c-6.79.47-13.49,1.51-19.36,5.43a19.84,19.84,0,0,0-6.78,8.56A36.21,36.21,0,0,0,55,57.81a26,26,0,0,0,1,7.69c.7,3.2,1.74,6.32,2.58,9.5a2.21,2.21,0,0,1-.11,1.55A8.94,8.94,0,0,0,60.28,88,14.84,14.84,0,0,1,64.51,95a44,44,0,0,0,3.79,8c3.65,6.14,2.08,10.81-2.63,15.08-3.56,3.25-7.8,5.44-12.12,7.5-6,2.86-12.46,4.89-17.92,8.9a34.9,34.9,0,0,0-9.87,10.83C25.52,145.64,25.26,146.05,25,146.56Z"/><circle class="cls-3" cx="130.65" cy="152.86" r="20.15"/><rect class="cls-1" x="117.15" y="150.14" width="27.64" height="5.58" rx="0.7"/><rect class="cls-1" x="116.9" y="150.07" width="27.64" height="5.58" rx="0.7" transform="translate(-22.14 283.58) rotate(-90)"/></g></g></svg>