<svg xmlns="http://www.w3.org/2000/svg" viewBox="0 0 173.32 173.32"><defs><style>.cls-1{fill:#86878a;}.cls-2{fill:#fff;}.cls-3{fill:#2e3690;}.cls-4{fill:#ebeceb;}</style></defs><g id="Layer_2" data-name="Layer 2"><g id="Layer_1-2" data-name="Layer 1"><circle class="cls-1" cx="86.66" cy="86.66" r="86.64"/><path class="cls-2" d="M133,86.43l-5.43.2c-3.85.14-7.7.3-11.55.43a1.07,1.07,0,0,0-1.13.75,2.88,2.88,0,0,1-1.26,1.32,1.3,1.3,0,0,0-.79,1.11c-.47,2.29-1,4.57-1.57,6.85-.07.29-.19.57-.33,1l15.31,6.78c.44-.62.79-1.18,1.2-1.69a8.28,8.28,0,1,1,3.33,13,.75.75,0,0,0-1.1.31,50.55,50.55,0,0,1-24.93,19.1,1.07,1.07,0,0,0-.77.92,14.31,14.31,0,0,1-1.3,2.55c.24.84.62,2.07,1,3.32.16.6.52.5,1,.46A5.75,5.75,0,1,1,99.91,151c-.32-.72-.67-.8-1.36-.67a63.43,63.43,0,0,1-53.77-15.48,1,1,0,0,0-1.58-.14,7.87,7.87,0,0,1-8.8.32,8.25,8.25,0,0,1,1.08-14.82,8.11,8.11,0,0,1,8.41,1.37c.28.22.53.47.89.79l2.86-2.33-5.92-9.19a8.34,8.34,0,0,1-7.7-1.3A7.94,7.94,0,0,1,31,104.8a8.39,8.39,0,0,1,5.1-9.61,8.48,8.48,0,0,1,10.9,5l3.86-1.21c-.36-1.7-.84-3.32-1-5s-.45-3-2.61-3.47c-2-.43-3-2.25-3.33-4.25-.05-.27-.08-.53-.12-.8,0,0,0,0-.12-.15l-7.94-.54c-1.47-.1-3-.12-4.41-.3-.89-.12-1.24.13-1.5,1a5.31,5.31,0,0,1-4.43,3.91,5.5,5.5,0,0,1-5.65-2.25A5.71,5.71,0,0,1,23.57,78c.95-.1,1.13-.44,1.28-1.28a63.34,63.34,0,0,1,34.8-46c.54-.26.77-.47.62-1.14A5.68,5.68,0,0,1,64.08,23a5.75,5.75,0,0,1,4.76,10.4l-.69.42,2.16,6c1.32-.39,2.55-.76,3.8-1.1A50.06,50.06,0,0,1,90,37a1,1,0,0,0,1.12-.61,1.87,1.87,0,0,1,1.06-1c1.22-.21,1.23-1,1.19-2a8.53,8.53,0,0,1-6.18-4.75,7.79,7.79,0,0,1-.53-5.55,8.32,8.32,0,0,1,8.91-6.24,8.52,8.52,0,0,1,7.46,9.48,63.85,63.85,0,0,1,26.42,14A6,6,0,0,1,134.76,39,5.8,5.8,0,0,1,139,46.2a5.72,5.72,0,0,1-7.1,4,6.84,6.84,0,0,1-1.94-.94c-.5-.37-.76-.28-1.12.12a15.61,15.61,0,0,1-1.18,1.12c-.76.67-1.66,1.23-1,2.51a1.61,1.61,0,0,1-.18,1.2,1.09,1.09,0,0,0,.2,1.36,50.48,50.48,0,0,1,11,24.55c.09.57.27.8.89.86a5,5,0,0,1,4.38,5,5,5,0,0,1-9.85,1.36ZM82.74,50.67c.14,5.36-2.17,8.82-6.43,9.73a8.33,8.33,0,0,1-9.42-4.85q-2.64-6.25,4.47-11c-.24-.69-.48-1.4-.74-2.1S70.2,41.3,70,40.68A50,50,0,0,0,50.1,54.1C53.32,57.24,54,60.79,52,64.81l.69.48q5.36,3.42,10.72,6.86a1,1,0,0,0,1.42,0,2.31,2.31,0,0,1,2.85.18,2.46,2.46,0,0,1,.79,2.77,2.29,2.29,0,0,1-2.36,1.61c-.94-.16-1.27.31-1.49,1-.6,1.87-1.27,3.72-1.71,5.62a19.72,19.72,0,0,0-.28,7c3.28.2,5.2,1.67,5.62,4.25a5,5,0,0,1-6.36,5.63,5.37,5.37,0,0,1-3.33-3l-6.9,2.16a36.44,36.44,0,0,0,5.14,10.26l.38-.07a2.56,2.56,0,0,1,3,1,2.45,2.45,0,0,1-.24,2.93,2.42,2.42,0,0,1-3.13.47c-.47-.26-.7-.09-1,.17l-6.09,5-1,.86a5.27,5.27,0,0,0,.37.52,50.7,50.7,0,0,0,24.16,15.67c.6.18.78,0,1-.54a8.06,8.06,0,0,1,7.77-5.7c.55,0,.73-.22.76-.74.06-.84.15-1.68.27-2.51a4.46,4.46,0,0,1,.27-.83l.33.06-.3,4,.57.12a8.33,8.33,0,1,1-10.08,7.77c0-.68-.15-.91-.79-1.11-1.72-.55-3.43-1.16-5.1-1.84A49.82,49.82,0,0,1,49,121.33c-.27-.3-.56-.59-.86-.9-.84.68-1.58,1.34-2.38,1.93-.49.36-.54.65-.22,1.18a8.1,8.1,0,0,1-.55,9.54c-.44.55-.41.83.11,1.3a62.75,62.75,0,0,0,26.81,14.39,60.83,60.83,0,0,0,18.9,1.84c2.84-.17,5.68-.58,8.57-.88a6,6,0,0,1,3.79-6.7c-.39-1.3-.72-2.56-1.14-3.78a1,1,0,0,0-.71-.5,2.48,2.48,0,0,1-.91-4.68,2.4,2.4,0,0,1,3,.68.77.77,0,0,0,1.06.26,50.44,50.44,0,0,0,21.82-15.15c1.14-1.35,2.16-2.79,3.19-4.13a2.11,2.11,0,0,0-.19-.31,8.3,8.3,0,0,1-3.39-9.69.84.84,0,0,0-.4-.7c-4.75-2.14-9.52-4.25-14.28-6.38-.42-.19-.65-.14-.84.3a14.41,14.41,0,0,1-.83,1.61,25.32,25.32,0,0,1-15.76,12,.84.84,0,0,0-.76.9,8.12,8.12,0,0,1-3.87,6.5,8.78,8.78,0,0,1-5,1.29l-.44,3.83a2.71,2.71,0,0,1-.44-.1c0-1.24.12-2.48.19-3.8A8.68,8.68,0,0,1,78.21,118a8.07,8.07,0,0,1-1.71-6,8.26,8.26,0,0,1,7.17-7.3,8,8,0,0,1,5.3,1.06A8.45,8.45,0,0,1,93.06,112c7.61-1.47,14.52-7.69,16.91-13.9-1.64-.74-3.29-1.46-4.92-2.23a.82.82,0,0,0-1.24.36A5.76,5.76,0,0,1,97,98.44a5.83,5.83,0,0,1-3.63-6.56A5.75,5.75,0,0,1,99,87.3c.26,0,.52,0,.87-.07a12.41,12.41,0,0,0-4.55-9,8.1,8.1,0,0,1-.82.51,2.45,2.45,0,0,1-3.43-3,2.18,2.18,0,0,1,2.2-1.56c1,.16,1.24-.38,1.58-1,1.2-2.33,2.42-4.65,3.64-7l2.35-4.52c-3.37-2.4-4.8-5.45-3.81-9.46.13-.51-.15-.63-.56-.7-1.4-.25-2.78-.59-4.18-.78A34.74,34.74,0,0,0,82.74,50.67Zm27.49,47.1a23.77,23.77,0,0,0,2-7.84,1,1,0,0,0-.53-.74,2.55,2.55,0,0,1-1.55-2.52,2.51,2.51,0,0,1,2-2.21,2.48,2.48,0,0,1,2.72,1.32,1,1,0,0,0,1.08.67c5.42-.23,10.84-.43,16.25-.64.29,0,.58-.07.85-.1a5.23,5.23,0,0,1,4.26-4.84,50.24,50.24,0,0,0-11.48-25.54,2.83,2.83,0,0,1-3.12-.26,2.48,2.48,0,0,1-.45-3.14,2.44,2.44,0,0,1,2.9-1c.36.11.9.24,1.12.07,1-.79,1.86-1.69,2.77-2.53-1.76-3-1.76-4.21,0-7.65A62.46,62.46,0,0,0,103,27c-1.41,4.28-4.31,6.47-8.78,6.5-.24.84-.51,1.54.55,2.13a2.38,2.38,0,0,1,.61,3.43,2.36,2.36,0,0,1-3.35.6,9.9,9.9,0,0,1-1.53-2,49.87,49.87,0,0,0-19.9,2.8L72,44.33a2.12,2.12,0,0,0,.42,0c4.56-.92,8.14.93,9.91,5.2.26.61.6.54,1.06.49a37.56,37.56,0,0,1,13.27.94c.55.14.77,0,1-.48a8.29,8.29,0,1,1,4.56,11.72c-.59-.2-.94-.27-1.25.44-.52,1.19-1.19,2.3-1.79,3.45l-4.12,7.83A1,1,0,0,0,95.15,75a4,4,0,0,1,.52,2,1.31,1.31,0,0,0,.43,1.16,12.72,12.72,0,0,1,4.28,8.52,1,1,0,0,0,.79,1,5.6,5.6,0,0,1,3.63,5.43c0,.65-.17,1.3-.28,2.07ZM58.37,96.58c-.17-3.19.57-4.51,3.21-5.94a.87.87,0,0,0,.36-.68,25.7,25.7,0,0,1,2.41-13.09c.12-.27,0-.69-.13-1a5.7,5.7,0,0,1-.46-1.94,1,1,0,0,0-.61-1.2c-3.58-2.28-7.17-4.55-10.73-6.86-.56-.36-.86-.37-1.33.17a8.16,8.16,0,0,1-9.86,2,8.28,8.28,0,1,1,7.43-14.8A1,1,0,0,0,50.22,53,50.08,50.08,0,0,1,66,41.64c1.23-.56,2.49-1.06,3.8-1.62l-2.19-6a6,6,0,0,1-6.87-2.95C53.32,33,40.26,44.52,33.88,54.8A61.56,61.56,0,0,0,25.26,78c3,.87,4.64,2.75,4.86,5.78.34,0,.63.1.93.12l11.17.74c1.48.09,1.47.08,2-1.27a4.13,4.13,0,0,1,.32-.75,5.78,5.78,0,0,1,10.8,3A5.76,5.76,0,0,1,50.77,91l-.9.23c.5,2.53,1,5,1.49,7.54Zm-7.41,3-3.82,1.19c.76,4.43-.78,7.66-4.62,9.82a48.23,48.23,0,0,0,5.8,8.9c2.52-2.06,5-4,7.35-6,.16-.13.12-.51.15-.77.09-.72.2-1.44.24-2.16a2.16,2.16,0,0,0-.14-1.11c-.78-1.39-1.7-2.71-2.41-4.14C52.59,103.45,51.83,101.54,51,99.58Zm-10.26-1h0c-.88-.3-1.76-.62-2.65-.9a1.69,1.69,0,0,0-2.34,1.17q-.9,2.56-1.76,5.13A1.7,1.7,0,0,0,35,106.41c1.78.65,3.58,1.26,5.39,1.85a1.68,1.68,0,0,0,2.28-1.16q.91-2.59,1.79-5.21a1.69,1.69,0,0,0-1.15-2.36C42.47,99.21,41.59,98.92,40.7,98.62Zm89.69,13.67c.45-.75.9-1.43,1.27-2.14s.68-1.52,1-2.28c.07-.16.14-.4.27-.45a7.88,7.88,0,0,1,1.11-.31,3.11,3.11,0,0,1,0,1.13c-.13.41-.54.73-.72,1.13s-.24.85-.08,1a1.39,1.39,0,0,0,1.09.39c1.44-.2,2.51-2.73,1.71-3.92a2.7,2.7,0,0,0-3-.91,2.44,2.44,0,0,0-1.65,2.43,5.85,5.85,0,0,1-.14.92h-.45a5.35,5.35,0,0,1-.2-1.66c.41-2.21,2.54-3.15,4.87-2.21a3,3,0,0,1,2,2.77,3.51,3.51,0,0,1-2.05,3.26,2.11,2.11,0,0,1-2.91-.83L131,112.8a5.21,5.21,0,0,0,7.2-1.06,5.31,5.31,0,1,0-8.43-6.47C128.07,107.48,128.36,110.8,130.39,112.29ZM90.55,23.45c-.35,1-.7,2-1,3s-.12,1.51.83,1.85c2,.72,4.05,1.41,6.08,2.09a1.27,1.27,0,0,0,1.85-.89c.7-2,1.38-4,2.06-6a1.25,1.25,0,0,0-.84-1.8c-2.07-.73-4.16-1.45-6.25-2.14-.84-.28-1.36,0-1.67.88S90.89,22.45,90.55,23.45ZM45.24,59.66a15.64,15.64,0,0,1-1.67-1.32,15.55,15.55,0,0,1-1.25-1.73l-.26-.06-.47,2.11c-.13.15-.37.28-.37.43,0,.8.38,1.54.29,2.39,0,.33.47.71.85,1.24l-2.54-.18a2.43,2.43,0,0,0,.19.29,5.5,5.5,0,0,0,8.69-1c.41-.68.94-1.29,1.4-1.93l-.3-.11.41-.42-1.61-1-.31-.17C47.09,57.63,46.23,58,45.24,59.66Zm58-.14c1,.28,2,.58,3.09.86a1.09,1.09,0,0,0,1.44-.59c.49-1.22.92-2.47,1.29-3.73a1.09,1.09,0,0,0-.8-1.41l-5.8-2a1.19,1.19,0,0,0-1.64.7,28.74,28.74,0,0,0-1.2,3.49,1.24,1.24,0,0,0,.9,1.56C101.45,58.74,102.33,59.13,103.27,59.52ZM84.73,114.61l-.3-.18a6.19,6.19,0,0,1-.06-1c.12-1,.3-2,.41-2.94.14-1.29-.59-1.91-1.82-1.51-.79.25-1.55.61-2.33.92l-.08.29a5.59,5.59,0,0,1,.73.38c.25.17.62.34.68.57a5,5,0,0,1,0,1.34c0,1-.16,2-.12,3,.06,1.34.78,1.89,2.06,1.49a11,11,0,0,0,5.42-3.73,1.91,1.91,0,0,0,.18-2.36,2.2,2.2,0,0,0-2.59-.31,10,10,0,0,0-1.33,1.07c.8.26,1.61.47,1,1.3A14.5,14.5,0,0,1,84.73,114.61ZM71.13,47.17l-2.38,6.95c1.22.79,1.68.82,2.28.1l.74.25L76.17,56c-.27,1.25.77,1.09,1.39,1.28s.63-.5.76-.86c.57-1.56,1.09-3.13,1.63-4.7l.46-1.35c-.77-.18-1.37-.36-2-.45-.33,0-.71.18-1,.09-1.29-.39-2.57-.86-3.85-1.3-.2-.07-.54-.15-.56-.26C72.85,47.33,71.81,47.68,71.13,47.17ZM97.56,97.22a4.43,4.43,0,0,0,5.72-2.7,4.52,4.52,0,0,0-2.76-5.72,4.45,4.45,0,0,0-5.64,2.72A4.37,4.37,0,0,0,97.56,97.22ZM81.22,140c.17.19.31.46.53.54,1.34.52,2.7,1,4.07,1.47a1.64,1.64,0,0,0,2.09-.92A1.62,1.62,0,0,0,86.82,139l-.38-.13c-.08-2-.79-3-2.3-3.25-.77-.14-1.43-.09-1.6.89a4.06,4.06,0,0,1-.34.86l.36-1.59-.28-.07-.63,1.84-.1,0,.32-1.39-.23-.05L80.29,140l.2.09.4-.62-.08,1ZM51.37,85.08c.46-1.45-.5-1.78-1.45-2.1-.57-.2-1.14-.38-1.72-.53a1,1,0,0,0-1.36.72c-.29.79-.56,1.59-.82,2.39A1.06,1.06,0,0,0,46.78,87c.54.2,1.1.35,1.62.57,1,.41,1.82.57,2.46-.68a11.48,11.48,0,0,1,.56,1.23c.09.18.33.29.5.44a2.32,2.32,0,0,0,.37-.47c.38-1,.74-2.1,1.08-3.16a3.15,3.15,0,0,0,0-.79ZM37.18,131.62l3.76,1.29c.89.3,1.29.11,1.6-.77.65-1.85,1.26-3.71,1.92-5.55a1.08,1.08,0,0,0-.75-1.56q-3.8-1.32-7.61-2.61a1,1,0,0,0-1.47.73c-.63,1.89-1.29,3.76-1.93,5.65-.3.88-.11,1.24.8,1.56Zm92.76-88-.43.06a2.35,2.35,0,0,1,.79,3.17.45.45,0,0,0,.07.43,3.5,3.5,0,0,0,1.13,1c.18.06.63-.53.91-.86.13-.13.14-.37.21-.56-.37,1.39-.27,1.85.48,2.06,1,.26,1.62-.41,2.09-2.1l1.71-.55A9.54,9.54,0,0,1,137,45a14.37,14.37,0,0,1,.59-1.71c.31-.76.06-1.2-.7-1.44-1.17-.39-2.34-.8-3.5-1.2-2.06-.71-2-.7-2.77,1.34C130.46,42.54,130.18,43.07,129.94,43.61ZM137.23,88c.63.22,1.25.45,1.89.65a1.25,1.25,0,0,0,1.33-2c-.14-.15-.21-.36-.35-.5A16.89,16.89,0,0,0,138,84.17a1.46,1.46,0,0,0-1.82.34c-.21.18-.52.26-.72.45-.36.34-.93.72-1,1.11a1.71,1.71,0,0,0,.81,1.23A9,9,0,0,0,137.23,88ZM66.49,94.74A2.72,2.72,0,0,0,66,93.59a1.77,1.77,0,0,0-1.44-.43A23.89,23.89,0,0,0,60.81,95a1.63,1.63,0,0,0-.53,1.38,1.87,1.87,0,0,0,1,1.15C62.13,98,66.08,96,66.49,94.74Zm35.06,55.66a2,2,0,0,0,3-1,15.55,15.55,0,0,0,.87-2.57,1.14,1.14,0,0,0-.28-1,6.23,6.23,0,0,0-1.85-.63c-.21,0-.57.22-.7.43a5.05,5.05,0,0,0-.51,1.25,1,1,0,0,0,.72,1.39c.29.09.48.47.72.72-.37.19-.76.59-1.1.55C101.63,149.44,101.56,149.84,101.55,150.4Zm6.72-1h0l.27-.77c.49-1.45.42-1.61-1-2.09-1.12-.38-1.48-.25-1.82.61-.64,1.63-.6,1.76.63,2.33.2.1.46.36.45.54a.8.8,0,0,1-.43.6c-.25.11-.6,0-.86.08a1,1,0,0,0-.58.51c0,.12.18.47.36.55a2,2,0,0,0,2.54-1.08C108,150.25,108.12,149.81,108.27,149.39Zm-28.52-9.62.23.09,1.36-4-.24-.08-.67,1.67.47-1.83-.26-.09-.71,1.77-.05,0,.48-1.73-.22-.08-1.21,2.62-.19-.09,1.13-2.34-.27-.16-1.13,1.21-.06-.31-.2,0-.46,1,.25-1.27-1.11.29,0-.29c-.34.28-.81.48-.94.82s.16.75.26,1.14l.32-.25.1.78.45-.9-.06.7.58.45.41-.52-.09.72h.93a.84.84,0,0,0,.21.33c.09.08.27.05.54.08l.33-.52ZM26.47,83.37c-.12.36-.23.67-.34,1-.78,2.29-.78,2.28-3.07,1.45-.51-.19-.9-.36-.61-1a.56.56,0,0,0-.1-.46.5.5,0,0,0-.39,0,5.89,5.89,0,0,0-.46,1.44c0,.16.36.44.6.54,1,.36,1.95.65,2.91,1,.64.25.95,0,1.15-.58.28-.86.55-1.73.89-2.57a2.54,2.54,0,0,0-.08-1.8c-.38-1.29-1.41-1.52-2.44-1.86-1.18-.39-1.36-.32-1.62.85-.05.19.1.43.16.65.17-.12.42-.21.48-.37.17-.45.42-.54.84-.37s.83.29,1.35.47C25.15,82.65,25.72,83.05,26.47,83.37Zm38-54.31a1.22,1.22,0,0,1-.22,0c-.5-.14-1-.17-1.14.45a1.17,1.17,0,0,0,.61.9c.57.26.86-.18,1-.7s.35-1.09.58-1.61c.09-.21.33-.5.52-.5.69,0,1.39.07,2.12.12l-.52,1.49c-.16,0-.3-.09-.39,0-.31.16-.74.3-.85.57a.93.93,0,0,0,.43.81c.34.06,1-.09,1.05-.33.48-1.11.83-2.28,1.28-3.58-1.09-.07-2-.09-2.93-.18a.72.72,0,0,0-.9.62C64.94,27.78,64.69,28.42,64.47,29.06ZM22.93,84.24c.39.14.8.26,1.19.41s.76,0,.83-.47.73-1-.09-1.38A16.29,16.29,0,0,0,22.39,82a.81.81,0,0,0-.69.32c-.62,1.12-.51,1.35.71,1.78Zm81.24-35.87c-.24,1.31-.46,2.5-.66,3.7,0,.13.09.38.19.41a.49.49,0,0,0,.42-.18c.59-1.1,1.14-2.21,1.71-3.32l-.12-.2-1,.77C104.48,49.18,105,48.42,104.17,48.37Zm3.56,4.74-.3-.11c.19-.58.42-1.15.57-1.73,0-.17-.11-.39-.17-.59-.15.1-.39.17-.45.31a15.57,15.57,0,0,0-.66,2,.81.81,0,0,0,.31.7,3.43,3.43,0,0,0,1.08.29c.27-.77.55-1.55.79-2.34,0-.17-.07-.4-.11-.6-.16.14-.39.24-.46.41C108.1,52,107.93,52.54,107.73,53.11Zm-1-1.17.21-.6c.17-.52.1-1-.48-1.17s-1,.1-1.16.65c-.12.34-.22.69-.35,1-.21.56-.13,1.06.45,1.28s1-.17,1.19-.76C106.59,52.22,106.65,52.08,106.69,51.94Zm32.89,31.74c1,.67,2,1.24,2.15,2.61a1.62,1.62,0,0,0,.09-1.15A2.1,2.1,0,0,0,139.58,83.68Zm0,.6-.06.27L141,86.2l.25-.1a4.57,4.57,0,0,0-.53-1.23A3.67,3.67,0,0,0,139.63,84.28Z"/><path class="cls-1" d="M40.7,98.62c.89.3,1.77.59,2.65.91a1.69,1.69,0,0,1,1.15,2.36q-.87,2.61-1.79,5.21a1.68,1.68,0,0,1-2.28,1.16c-1.81-.59-3.61-1.2-5.39-1.85A1.7,1.7,0,0,1,34,104q.86-2.56,1.76-5.13a1.69,1.69,0,0,1,2.34-1.17c.89.28,1.77.6,2.65.9Zm-.31,6a1.23,1.23,0,1,0,.84-2.3,1.25,1.25,0,0,0-1.61.76A1.28,1.28,0,0,0,40.39,104.67Zm-3.2-1.11a1.22,1.22,0,1,0,.77-2.31,1.31,1.31,0,0,0-1.54.77A1.29,1.29,0,0,0,37.19,103.56Z"/><path class="cls-1" d="M130.39,112.29c-2-1.49-2.32-4.81-.66-7a5.31,5.31,0,1,1,8.43,6.47,5.21,5.21,0,0,1-7.2,1.06l1.58-2.14a2.11,2.11,0,0,0,2.91.83,3.51,3.51,0,0,0,2.05-3.26,3,3,0,0,0-2-2.77c-2.33-.94-4.46,0-4.87,2.21a5.35,5.35,0,0,0,.2,1.66h.45a5.85,5.85,0,0,0,.14-.92A2.44,2.44,0,0,1,133.1,106a2.7,2.7,0,0,1,3,.91c.8,1.19-.27,3.72-1.71,3.92a1.39,1.39,0,0,1-1.09-.39c-.16-.2-.05-.73.08-1s.59-.72.72-1.13a3.11,3.11,0,0,0,0-1.13,7.88,7.88,0,0,0-1.11.31c-.13,0-.2.29-.27.45-.34.76-.64,1.54-1,2.28S130.84,111.54,130.39,112.29Z"/><path class="cls-1" d="M90.55,23.45c.34-1,.67-2,1-3s.83-1.16,1.67-.88c2.09.69,4.18,1.41,6.25,2.14a1.25,1.25,0,0,1,.84,1.8c-.68,2-1.36,4-2.06,6a1.27,1.27,0,0,1-1.85.89c-2-.68-4.06-1.37-6.08-2.09-.95-.34-1.16-.86-.83-1.85S90.2,24.45,90.55,23.45Zm1.88-.05a2.84,2.84,0,0,0-.57-.08c-.45,1.23-.87,2.48-1.34,3.83,2.08.71,4.09,1.42,6.12,2.08a.74.74,0,0,0,.62-.3c.43-1.12.8-2.27,1.19-3.4l-.2-.2c-.18.11-.44.19-.55.36s-.29.73-.51,1a2.86,2.86,0,0,1-3.8.72C92,26.59,91.63,25.13,92.43,23.4Zm4.15,2.15a1.79,1.79,0,0,0-1.14-2.25,1.88,1.88,0,0,0-2.29,1.11,1.84,1.84,0,0,0,1.15,2.18A1.76,1.76,0,0,0,96.58,25.55ZM98,24.1c.56.29.92.26,1.16-.43s0-1-.6-1.19-.92-.09-1.13.55S97.28,24,98,24.1Z"/><path class="cls-1" d="M45.24,59.66c1-1.64,1.85-2,3-1.47l.31.17,1.61,1-.41.42.3.11c-.46.64-1,1.25-1.4,1.93a5.5,5.5,0,0,1-8.69,1,2.43,2.43,0,0,1-.19-.29l2.54.18c-.38-.53-.88-.91-.85-1.24.09-.85-.32-1.59-.29-2.39,0-.15.24-.28.37-.43l.47-2.11.26.06a15.55,15.55,0,0,0,1.25,1.73A15.64,15.64,0,0,0,45.24,59.66Z"/><path class="cls-1" d="M103.27,59.52c-.94-.39-1.82-.78-2.72-1.12a1.24,1.24,0,0,1-.9-1.56,28.74,28.74,0,0,1,1.2-3.49,1.19,1.19,0,0,1,1.64-.7l5.8,2a1.09,1.09,0,0,1,.8,1.41c-.37,1.26-.8,2.51-1.29,3.73a1.09,1.09,0,0,1-1.44.59C105.31,60.1,104.27,59.8,103.27,59.52ZM103,57.58a2.55,2.55,0,0,1-.09-.81,13.62,13.62,0,0,1,.53-1.6L103,55a12.3,12.3,0,0,0-.79,2.43c-.06.52.44.4.74.1l.41.67.94-2.75-.26-.11c-.12.27-.24.53-.37.79Zm2.52-2.6-.15,0-1.15,3.34c1.27.4,1.29.4,1.68-.83.2-.63.71-1.42-.5-1.6Zm2.33,3.1a3.42,3.42,0,0,0,.11-1,.86.86,0,0,0-.49-.52c-.17-.06-.56,0-.62.16a9.53,9.53,0,0,0-.65,1.93c0,.16.43.53.7.6s.45-.3.68-.47l-.18-.21-.9.39.22-1.08ZM102.86,54l-1.25-.43c.58,1.39-.78,2.46-.56,3.94C101.93,56.38,101.7,54.88,102.86,54Z"/><path class="cls-1" d="M84.73,114.61A14.5,14.5,0,0,0,86.56,113c.66-.83-.15-1-1-1.3a10,10,0,0,1,1.33-1.07,2.2,2.2,0,0,1,2.59.31,1.91,1.91,0,0,1-.18,2.36A11,11,0,0,1,83.93,117c-1.28.4-2-.15-2.06-1.49,0-1,.08-2,.12-3a5,5,0,0,0,0-1.34c-.06-.23-.43-.4-.68-.57a5.59,5.59,0,0,0-.73-.38l.08-.29c.78-.31,1.54-.67,2.33-.92,1.23-.4,2,.22,1.82,1.51-.11,1-.29,2-.41,2.94a6.19,6.19,0,0,0,.06,1Z"/><path class="cls-1" d="M71.13,47.17c.68.51,1.72.16,1.89,1.26,0,.11.36.19.56.26,1.28.44,2.56.91,3.85,1.3.3.09.68-.13,1-.09.6.09,1.2.27,2,.45L80,51.7c-.54,1.57-1.06,3.14-1.63,4.7-.13.36-.06,1.08-.76.86s-1.66,0-1.39-1.28l-4.4-1.51L71,54.22c-.6.72-1.06.69-2.28-.1Zm.16,6.42c1.58.54,3,1.06,4.53,1.53a.65.65,0,0,0,.61-.26c.48-1.26.9-2.54,1.34-3.84l-5-1.72Z"/><path class="cls-1" d="M97.56,97.22a4.37,4.37,0,0,1-2.68-5.7,4.45,4.45,0,0,1,5.64-2.72,4.52,4.52,0,0,1,2.76,5.72A4.43,4.43,0,0,1,97.56,97.22Zm1.74-1.81.32-.7-1.4-.29-.07.72c-.66-.75-1.29-1.57-2.45-1.54-.3.7.21,2,.93,2,.53.06,1.24.32,1.51-.52.47-.21,1-.49,1.16.3.3.3.58.83.89.85a2.45,2.45,0,0,0,1.36-.54c.12-.09,0-.57-.06-.88a11.48,11.48,0,0,0-1.31.19A4.87,4.87,0,0,0,99.3,95.41Zm-1.17-1.34.21-.08a8.67,8.67,0,0,0,1.5.24,1.05,1.05,0,0,0,.77-.42.9.9,0,0,0-.12-.78c-.23-.38-.59-.68-.86-1-.45-.57-1-.36-1.46-.12a1.39,1.39,0,0,0-.67,1C97.52,93.28,97.9,93.67,98.13,94.07Zm2.2-4.67a13,13,0,0,0-1.72,0c-.2,0-.41.29-.54.49s0,.34.12.45a3.73,3.73,0,0,0,2.62,1c.12,0,.41-.37.37-.45A14.8,14.8,0,0,0,100.33,89.4Zm1.64,1-.33.11c0,.08,0,.21,0,.25a1.06,1.06,0,0,1,.08,1.74,1.07,1.07,0,0,0,0,1.61c1-.34,1.26-1,.65-1.87-.06-.09-.17-.17-.19-.28C102.16,91.48,102.07,91,102,90.43Zm-6.32,2.42c.48-.59,1-1.17,1.43-1.8.11-.15,0-.48,0-.72-.23,0-.55,0-.69.18A2.18,2.18,0,0,0,95.65,92.85ZM97.36,96l-.08.39,2.3.42.08-.39Zm2.65-4.3,1,1.24C101.3,92.15,100.9,91.67,100,91.71Z"/><path class="cls-1" d="M81.22,140l-.41.5.08-1-.4.62-.2-.09,1.35-3.92.23.05-.32,1.39.1,0,.63-1.84.28.07-.36,1.59a4.06,4.06,0,0,0,.34-.86c.17-1,.83-1,1.6-.89,1.51.29,2.22,1.28,2.3,3.25l.38.13a1.62,1.62,0,0,1,1.09,2.07,1.64,1.64,0,0,1-2.09.92c-1.37-.46-2.73-.95-4.07-1.47C81.53,140.43,81.39,140.16,81.22,140Z"/><path class="cls-1" d="M51.37,85.08l2-.9a3.15,3.15,0,0,1,0,.79c-.34,1.06-.7,2.12-1.08,3.16a2.32,2.32,0,0,1-.37.47c-.17-.15-.41-.26-.5-.44a11.48,11.48,0,0,0-.56-1.23c-.64,1.25-1.51,1.09-2.46.68-.52-.22-1.08-.37-1.62-.57A1.06,1.06,0,0,1,46,85.56c.26-.8.53-1.6.82-2.39a1,1,0,0,1,1.36-.72c.58.15,1.15.33,1.72.53C50.87,83.3,51.83,83.63,51.37,85.08Z"/><path class="cls-1" d="M37.18,131.62l-3.68-1.26c-.91-.32-1.1-.68-.8-1.56.64-1.89,1.3-3.76,1.93-5.65a1,1,0,0,1,1.47-.73q3.81,1.29,7.61,2.61a1.08,1.08,0,0,1,.75,1.56c-.66,1.84-1.27,3.7-1.92,5.55-.31.88-.71,1.07-1.6.77Zm4.42.63,2.17-6.31c-2.65-.91-5.24-1.81-7.83-2.67a.61.61,0,0,0-.55.23c-.7,2-1.37,3.91-2.06,5.91Z"/><path class="cls-1" d="M129.94,43.61c.24-.54.52-1.07.72-1.63.73-2,.71-2,2.77-1.34,1.16.4,2.33.81,3.5,1.2.76.24,1,.68.7,1.44A14.37,14.37,0,0,0,137,45a9.54,9.54,0,0,0-.14,1.26l-1.71.55c-.47,1.69-1.12,2.36-2.09,2.1-.75-.21-.85-.67-.48-2.06-.07.19-.08.43-.21.56-.28.33-.73.92-.91.86a3.5,3.5,0,0,1-1.13-1,.45.45,0,0,1-.07-.43,2.35,2.35,0,0,0-.79-3.17Zm6.86.75a3.4,3.4,0,0,0,.35-1.11c0-.33-.2-.85-.45-1-1.43-.57-2.9-1-4.35-1.53-.51-.17-.8,0-.95.53a12.24,12.24,0,0,1-.63,1.79c-.4.81-.06,1.24.65,1.53.88.36,1.77.7,2.67,1C135.85,46.29,136.2,46.12,136.8,44.36Z"/><path class="cls-1" d="M137.23,88a9,9,0,0,1-1.94-.71,1.71,1.71,0,0,1-.81-1.23c0-.39.59-.77,1-1.11.2-.19.51-.27.72-.45a1.46,1.46,0,0,1,1.82-.34,16.89,16.89,0,0,1,2.13,1.94c.14.14.21.35.35.5a1.25,1.25,0,0,1-1.33,2C138.48,88.46,137.86,88.23,137.23,88Z"/><path class="cls-1" d="M66.49,94.74C66.08,96,62.13,98,61.24,97.55a1.87,1.87,0,0,1-1-1.15A1.63,1.63,0,0,1,60.81,95a23.89,23.89,0,0,1,3.76-1.86,1.77,1.77,0,0,1,1.44.43A2.72,2.72,0,0,1,66.49,94.74Zm-3.9,1.69L62,95.33c-.35.23-1.19.26-.85,1S62.13,96.59,62.59,96.43Zm2.06-.83a11.65,11.65,0,0,0,.87-1c0-.07-.17-.47-.28-.47a7.76,7.76,0,0,0-1.14.09Z"/><path class="cls-1" d="M101.55,150.4c0-.56.08-1,.87-.86.34,0,.73-.36,1.1-.55-.24-.25-.43-.63-.72-.72a1,1,0,0,1-.72-1.39,5.05,5.05,0,0,1,.51-1.25c.13-.21.49-.47.7-.43a6.23,6.23,0,0,1,1.85.63,1.14,1.14,0,0,1,.28,1,15.55,15.55,0,0,1-.87,2.57A2,2,0,0,1,101.55,150.4Z"/><path class="cls-1" d="M108.27,149.39c-.15.42-.27.86-.45,1.28a2,2,0,0,1-2.54,1.08c-.18-.08-.41-.43-.36-.55a1,1,0,0,1,.58-.51c.26-.09.61,0,.86-.08a.8.8,0,0,0,.43-.6c0-.18-.25-.44-.45-.54-1.23-.57-1.27-.7-.63-2.33.34-.86.7-1,1.82-.61,1.43.48,1.5.64,1,2.09l-.27.77Z"/><path class="cls-1" d="M79.75,139.77l.15-.73-.33.52c-.27,0-.45,0-.54-.08a.84.84,0,0,1-.21-.33h-.93l.09-.72-.41.52L77,138.5l.06-.7-.45.9-.1-.78-.32.25c-.1-.39-.37-.84-.26-1.14s.6-.54.94-.82l0,.29,1.11-.29-.25,1.27.46-1,.2,0,.06.31,1.13-1.21.27.16L78.74,138l.19.09,1.21-2.62.22.08-.48,1.73.05,0,.71-1.77.26.09-.47,1.83.67-1.67.24.08-1.36,4Z"/><path class="cls-1" d="M26.47,83.37c-.75-.32-1.32-.72-.73-1.68-.52-.18-.94-.31-1.35-.47s-.67-.08-.84.37c-.06.16-.31.25-.48.37-.06-.22-.21-.46-.16-.65.26-1.17.44-1.24,1.62-.85,1,.34,2.06.57,2.44,1.86a2.54,2.54,0,0,1,.08,1.8c-.34.84-.61,1.71-.89,2.57-.2.59-.51.83-1.15.58-1-.36-2-.65-2.91-1-.24-.1-.62-.38-.6-.54A5.89,5.89,0,0,1,22,84.28a.5.5,0,0,1,.39,0,.56.56,0,0,1,.1.46c-.29.66.1.83.61,1,2.29.83,2.29.84,3.07-1.45C26.24,84,26.35,83.73,26.47,83.37Z"/><path class="cls-1" d="M64.47,29.06c.22-.64.47-1.28.66-1.95a.72.72,0,0,1,.9-.62c.91.09,1.84.11,2.93.18-.45,1.3-.8,2.47-1.28,3.58-.1.24-.71.39-1.05.33a.93.93,0,0,1-.43-.81c.11-.27.54-.41.85-.57.09-.05.23,0,.39,0L68,27.75c-.73-.05-1.43-.14-2.12-.12-.19,0-.43.29-.52.5-.23.52-.4,1.07-.58,1.61s-.45,1-1,.7a1.17,1.17,0,0,1-.61-.9c.09-.62.64-.59,1.14-.45A1.22,1.22,0,0,0,64.47,29.06Z"/><path class="cls-1" d="M22.93,84.24l-.52-.17c-1.22-.43-1.33-.66-.71-1.78a.81.81,0,0,1,.69-.32,16.29,16.29,0,0,1,2.47.83c.82.35.16.92.09,1.38s-.33.68-.83.47S23.32,84.38,22.93,84.24Z"/><path class="cls-1" d="M104.17,48.37c.87.05.31.81.5,1.18l1-.77.12.2c-.57,1.11-1.12,2.22-1.71,3.32a.49.49,0,0,1-.42.18c-.1,0-.21-.28-.19-.41C103.71,50.87,103.93,49.68,104.17,48.37Z"/><path class="cls-1" d="M107.73,53.11c.2-.57.37-1.14.6-1.7.07-.17.3-.27.46-.41,0,.2.16.43.11.6-.24.79-.52,1.57-.79,2.34a3.43,3.43,0,0,1-1.08-.29.81.81,0,0,1-.31-.7,15.57,15.57,0,0,1,.66-2c.06-.14.3-.21.45-.31.06.2.22.42.17.59-.15.58-.38,1.15-.57,1.73Z"/><path class="cls-1" d="M106.69,51.94c0,.14-.1.28-.14.42-.18.59-.54,1-1.19.76s-.66-.72-.45-1.28c.13-.33.23-.68.35-1,.2-.55.53-.88,1.16-.65s.65.65.48,1.17Zm-1.2.5.21.07.58-1.69-.21-.07Z"/><path class="cls-1" d="M139.58,83.68a2.1,2.1,0,0,1,2.24,1.46,1.62,1.62,0,0,1-.09,1.15C141.57,84.92,140.54,84.35,139.58,83.68Z"/><path class="cls-1" d="M139.63,84.28a3.67,3.67,0,0,1,1.09.59,4.57,4.57,0,0,1,.53,1.23l-.25.1-1.43-1.65Z"/><path class="cls-2" d="M40.39,104.67a1.28,1.28,0,0,1-.77-1.54,1.25,1.25,0,0,1,1.61-.76,1.23,1.23,0,1,1-.84,2.3Z"/><path class="cls-2" d="M37.19,103.56a1.29,1.29,0,0,1-.77-1.54,1.31,1.31,0,0,1,1.54-.77,1.22,1.22,0,1,1-.77,2.31Z"/><path class="cls-2" d="M92.43,23.4c-.8,1.73-.43,3.19,1,4.05a2.86,2.86,0,0,0,3.8-.72c.22-.31.3-.72.51-1s.37-.25.55-.36l.2.2c-.39,1.13-.76,2.28-1.19,3.4a.74.74,0,0,1-.62.3c-2-.66-4-1.37-6.12-2.08.47-1.35.89-2.6,1.34-3.83A2.84,2.84,0,0,1,92.43,23.4Z"/><path class="cls-2" d="M96.58,25.55a1.76,1.76,0,0,1-2.28,1,1.84,1.84,0,0,1-1.15-2.18,1.88,1.88,0,0,1,2.29-1.11A1.79,1.79,0,0,1,96.58,25.55Z"/><path class="cls-2" d="M98,24.1c-.67-.09-.78-.44-.57-1.07s.52-.76,1.13-.55.85.5.6,1.19S98.51,24.39,98,24.1Z"/><path class="cls-2" d="M105.47,55l-.12.87c1.21.18.7,1,.5,1.6-.39,1.23-.41,1.23-1.68.83l1.15-3.34Zm-1,3.34a1.64,1.64,0,0,0,.76-2.21Z"/><path class="cls-2" d="M107.8,58.08l-1.13-.21L106.45,59l.9-.39.18.21c-.23.17-.5.51-.68.47s-.73-.44-.7-.6a9.53,9.53,0,0,1,.65-1.93c.06-.13.45-.22.62-.16a.86.86,0,0,1,.49.52A3.42,3.42,0,0,1,107.8,58.08Z"/><path class="cls-2" d="M102.86,54c-1.16.86-.93,2.36-1.81,3.51-.22-1.48,1.14-2.55.56-3.94Z"/><path class="cls-2" d="M103,57.55c-.3.31-.8.43-.74-.09A12.3,12.3,0,0,1,103,55l.39.14a13.62,13.62,0,0,0-.53,1.6,2.55,2.55,0,0,0,.09.81Z"/><path class="cls-2" d="M103,57.58l.72-1.42c.13-.26.25-.52.37-.79l.26.11-.94,2.75-.41-.67Z"/><path class="cls-2" d="M71.29,53.59l1.47-4.29,5,1.72c-.44,1.3-.86,2.58-1.34,3.84a.65.65,0,0,1-.61.26C74.34,54.65,72.87,54.13,71.29,53.59Zm2.48-3.46-1.14,3.32,4-.51Z"/><path class="cls-2" d="M98.13,94.07c-.23-.4-.61-.79-.63-1.19a1.39,1.39,0,0,1,.67-1c.43-.24,1-.45,1.46.12.27.36.63.66.86,1a.9.9,0,0,1,.12.78,1.05,1.05,0,0,1-.77.42,8.67,8.67,0,0,1-1.5-.24Z"/><path class="cls-2" d="M100.33,89.4a14.8,14.8,0,0,1,.85,1.42c0,.08-.25.46-.37.45a3.73,3.73,0,0,1-2.62-1c-.1-.11-.18-.36-.12-.45s.34-.46.54-.49A13,13,0,0,1,100.33,89.4Z"/><path class="cls-2" d="M98.14,95.11c-.27.84-1,.58-1.51.52-.72-.08-1.23-1.33-.93-2,1.16,0,1.79.79,2.45,1.54Z"/><path class="cls-2" d="M99.3,95.42a4.3,4.3,0,0,1,.88-.39,11.48,11.48,0,0,1,1.31-.19c0,.31.18.79.06.88a2.45,2.45,0,0,1-1.36.54c-.31,0-.59-.55-.89-.85Z"/><path class="cls-2" d="M102,90.43c.1.52.19,1,.3,1.56,0,.11.13.19.19.28.61.86.37,1.53-.65,1.87a1.07,1.07,0,0,1,0-1.61,1.06,1.06,0,0,0-.08-1.74c-.05,0,0-.17,0-.25Z"/><path class="cls-2" d="M95.65,92.85a2.18,2.18,0,0,1,.69-2.34c.14-.15.46-.13.69-.18,0,.24.16.57,0,.72C96.64,91.68,96.13,92.26,95.65,92.85Z"/><path class="cls-2" d="M97.36,96l2.3.42-.08.39-2.3-.42Z"/><path class="cls-2" d="M100,91.71c.89,0,1.29.44,1,1.24Z"/><path class="cls-2" d="M98.15,95.14c0-.24,0-.48.07-.72l1.4.29-.32.71h0c-.2-.79-.69-.51-1.16-.3Z"/><path class="cls-2" d="M41.6,132.25l-8.27-2.84c.69-2,1.36-4,2.06-5.91a.61.61,0,0,1,.55-.23c2.59.86,5.18,1.76,7.83,2.67Zm-5-5.37a17.93,17.93,0,0,0-1.82,1,1.61,1.61,0,0,0-.58.92c0,.14.39.46.65.56,1.9.68,3.81,1.33,5.73,2,.23.08.71.1.73,0A5.91,5.91,0,0,0,41.9,129a12.69,12.69,0,0,0-1.19-2.93L37.23,128Zm.95-1.26a1,1,0,0,0-.57-1.41,1,1,0,0,0-1.38.47,1,1,0,0,0,.49,1.45A1,1,0,0,0,37.51,125.62Z"/><path class="cls-2" d="M136.8,44.36c-.6,1.76-1,1.93-2.71,1.29-.9-.33-1.79-.67-2.67-1-.71-.29-1-.72-.65-1.53a12.24,12.24,0,0,0,.63-1.79c.15-.48.44-.7.95-.53,1.45.5,2.92,1,4.35,1.53.25.1.44.62.45,1A3.4,3.4,0,0,1,136.8,44.36Zm-1.11.78.15-.38c-.26-.34-.45-.8-.79-1a.76.76,0,0,0-1.21.47,1.29,1.29,0,0,0,.53,1.12C134.72,45.5,135.24,45.23,135.69,45.14Zm-2.52-2.22-.4-.14c-.36.26-.93.46-1,.79a1.31,1.31,0,0,0,.57,1.1.76.76,0,0,0,1.18-.55C133.56,43.75,133.29,43.33,133.17,42.92Z"/><path class="cls-2" d="M62.59,96.43c-.46.16-1.06.75-1.4-.05s.5-.82.85-1Z"/><path class="cls-2" d="M64.65,95.6l-.55-1.39a7.76,7.76,0,0,1,1.14-.09c.11,0,.33.4.28.47A11.65,11.65,0,0,1,64.65,95.6Z"/><path class="cls-2" d="M105.49,52.44l.58-1.69.21.07-.58,1.69Z"/><path class="cls-1" d="M104.51,58.32l.76-2.21A1.64,1.64,0,0,1,104.51,58.32Z"/><path class="cls-1" d="M73.77,50.13l2.81,2.81-4,.51Z"/><path class="cls-1" d="M36.56,126.88l.67,1.12,3.48-1.94A12.69,12.69,0,0,1,41.9,129a5.91,5.91,0,0,1-.63,2.37c0,.07-.5,0-.73,0-1.92-.64-3.83-1.29-5.73-2-.26-.1-.68-.42-.65-.56a1.61,1.61,0,0,1,.58-.92A17.93,17.93,0,0,1,36.56,126.88Z"/><path class="cls-1" d="M37.51,125.62a1,1,0,0,1-1.46.51,1,1,0,0,1-.49-1.45,1,1,0,0,1,1.38-.47A1,1,0,0,1,37.51,125.62Z"/><path class="cls-1" d="M135.69,45.14c-.45.09-1,.36-1.32.21a1.29,1.29,0,0,1-.53-1.12.76.76,0,0,1,1.21-.47c.34.2.53.66.79,1Z"/><path class="cls-1" d="M133.17,42.92c.12.41.39.83.33,1.2a.76.76,0,0,1-1.18.55,1.31,1.31,0,0,1-.57-1.1c.09-.33.66-.53,1-.79Z"/><circle class="cls-3" cx="137.76" cy="151.9" r="16.91"/><rect class="cls-4" x="126.43" y="149.62" width="23.2" height="4.68" rx="0.59"/><rect class="cls-4" x="135.48" y="140.31" width="4.68" height="23.2" rx="0.59"/></g></g></svg>